<svg width="17" height="17" viewBox="0 0 17 17" fill="none" xmlns="http://www.w3.org/2000/svg">
<g clip-path="url(#clip0_17_12)">
<path fill-rule="evenodd" clip-rule="evenodd" d="M1.0188 15.7906C1.0188 15.6555 1.07246 15.526 1.16799 15.4304C1.26352 15.3349 1.39308 15.2812 1.52817 15.2812H14.7719C14.907 15.2812 15.0366 15.3349 15.1321 15.4304C15.2276 15.526 15.2813 15.6555 15.2813 15.7906C15.2813 15.9257 15.2276 16.0553 15.1321 16.1508C15.0366 16.2463 14.907 16.3 14.7719 16.3H1.52817C1.39308 16.3 1.26352 16.2463 1.16799 16.1508C1.07246 16.0553 1.0188 15.9257 1.0188 15.7906ZM11.7157 2.03749H11.2063V1.01874H11.7157C12.121 1.01874 12.5096 1.17974 12.7962 1.46632C13.0828 1.75289 13.2438 2.14158 13.2438 2.54686V15.2812H12.225V2.54686C12.225 2.41177 12.1714 2.28221 12.0759 2.18668C11.9803 2.09115 11.8508 2.03749 11.7157 2.03749Z" fill="#5A6168"/>
<path fill-rule="evenodd" clip-rule="evenodd" d="M11.031 0.12428C11.0861 0.172164 11.1303 0.23133 11.1605 0.297771C11.1908 0.364211 11.2064 0.436372 11.2063 0.509367V15.2812H10.1875V1.09719L4.07502 1.97025V15.2812H3.05627V1.52812C3.05629 1.40539 3.10062 1.2868 3.1811 1.19415C3.26159 1.10149 3.37282 1.04102 3.49434 1.02384L10.6256 0.00508579C10.6978 -0.00522197 10.7713 8.50482e-05 10.8413 0.0206482C10.9112 0.0412113 10.9759 0.0765513 11.031 0.12428Z" fill="#5A6168"/>
<path d="M8.15002 9.16874C8.15002 9.73109 8.37822 10.1875 8.6594 10.1875C8.94057 10.1875 9.16877 9.73109 9.16877 9.16874C9.16877 8.60639 8.94057 8.14999 8.6594 8.14999C8.37822 8.14999 8.15002 8.60639 8.15002 9.16874Z" fill="#5A6168"/>
</g>
<defs>
<clipPath id="clip0_17_12">
<rect width="16.3" height="16.3" fill="white"/>
</clipPath>
</defs>
</svg>
