<svg width="17" height="17" viewBox="0 0 17 17" fill="none" xmlns="http://www.w3.org/2000/svg">
<path d="M7.8868 3.94205C8.27663 3.94205 8.65771 3.82646 8.98184 3.60988C9.30598 3.3933 9.55861 3.08546 9.70779 2.72531C9.85697 2.36515 9.896 1.96884 9.81995 1.5865C9.7439 1.20416 9.55618 0.852954 9.28052 0.577301C9.00487 0.301648 8.65367 0.113926 8.27133 0.0378736C7.88898 -0.0381789 7.49268 0.000854028 7.13252 0.150036C6.77236 0.299219 6.46453 0.55185 6.24795 0.875984C6.03137 1.20012 5.91577 1.5812 5.91577 1.97103C5.91635 2.4936 6.1242 2.9946 6.49371 3.36411C6.86323 3.73362 7.36423 3.94147 7.8868 3.94205ZM7.8868 1.01875C8.07514 1.01875 8.25925 1.0746 8.41585 1.17924C8.57246 1.28388 8.69451 1.4326 8.76659 1.60661C8.83866 1.78061 8.85752 1.97208 8.82078 2.15681C8.78403 2.34153 8.69334 2.51121 8.56016 2.64439C8.42698 2.77757 8.2573 2.86826 8.07258 2.90501C7.88785 2.94175 7.69638 2.92289 7.52238 2.85082C7.34837 2.77874 7.19965 2.65669 7.09501 2.50008C6.99037 2.34348 6.93452 2.15937 6.93452 1.97103C6.93482 1.71856 7.03524 1.47651 7.21376 1.29799C7.39229 1.11947 7.63433 1.01905 7.8868 1.01875Z" fill="#5A6168"/>
<path d="M9.65912 5.64624C9.52669 5.26547 9.2801 4.93478 8.95294 4.69922C8.62578 4.46366 8.23396 4.33467 7.83085 4.32982C7.42774 4.32498 7.03293 4.44451 6.70021 4.67215C6.36749 4.89978 6.11302 5.22445 5.97147 5.60192L4 10.8592V12.225H6.0375V15.2813H9.34844V12.225H11.3859V10.6109L9.65912 5.64624ZM10.3672 11.2063H8.32969V14.2625H7.05625V11.2063H5.01875V11.0439L6.92537 5.95969C6.99337 5.77835 7.11561 5.62238 7.27545 5.51303C7.43529 5.40367 7.62495 5.34625 7.8186 5.34858C8.01226 5.3509 8.20048 5.41287 8.35765 5.52604C8.51481 5.63921 8.63327 5.79807 8.69688 5.98099L10.3672 10.7828V11.2063Z" fill="#5A6168"/>
</svg>
