<svg width="17" height="15" viewBox="0 0 17 15" fill="none" xmlns="http://www.w3.org/2000/svg">
<g clip-path="url(#clip0_17_23)">
<path d="M16.3 1.8111C16.3 2.31114 15.895 2.71666 15.3944 2.71666H12.6778V5.43333C12.6778 5.93336 12.2728 6.33888 11.7722 6.33888H9.05555V9.05555C9.05555 9.55558 8.6506 9.9611 8.15 9.9611H5.43333V12.6778C5.43333 13.1778 5.02838 13.5833 4.52778 13.5833H0.905555C0.404953 13.5833 0 13.1778 0 12.6778C0 12.1777 0.404953 11.7722 0.905555 11.7722H3.62222V9.05555C3.62222 8.55551 4.02718 8.14999 4.52778 8.14999H7.24444V5.43333C7.24444 4.93329 7.6494 4.52777 8.15 4.52777H10.8667V1.8111C10.8667 1.31107 11.2716 0.905548 11.7722 0.905548H15.3944C15.8953 0.905548 16.3 1.31107 16.3 1.8111Z" fill="#5A6168"/>
</g>
<defs>
<clipPath id="clip0_17_23">
<rect width="16.3" height="14.4889" fill="white"/>
</clipPath>
</defs>
</svg>
