<svg width="17" height="17" viewBox="0 0 17 17" fill="none" xmlns="http://www.w3.org/2000/svg">
<path d="M7.92891 3.94205C8.31874 3.94205 8.69982 3.82646 9.02396 3.60988C9.34809 3.3933 9.60072 3.08546 9.7499 2.72531C9.89909 2.36515 9.93812 1.96884 9.86207 1.5865C9.78601 1.20416 9.59829 0.852954 9.32264 0.577301C9.04699 0.301648 8.69578 0.113926 8.31344 0.0378736C7.9311 -0.0381789 7.53479 0.000854028 7.17463 0.150036C6.81448 0.299219 6.50664 0.55185 6.29006 0.875984C6.07348 1.20012 5.95789 1.5812 5.95789 1.97103C5.95847 2.4936 6.16632 2.9946 6.53583 3.36411C6.90534 3.73362 7.40634 3.94147 7.92891 3.94205ZM7.92891 1.01875C8.11725 1.01875 8.30137 1.0746 8.45797 1.17924C8.61457 1.28388 8.73663 1.4326 8.8087 1.60661C8.88078 1.78061 8.89963 1.97208 8.86289 2.15681C8.82615 2.34153 8.73545 2.51121 8.60227 2.64439C8.46909 2.77757 8.29942 2.86826 8.11469 2.90501C7.92997 2.94175 7.7385 2.92289 7.56449 2.85082C7.39049 2.77874 7.24176 2.65669 7.13712 2.50008C7.03249 2.34348 6.97664 2.15937 6.97664 1.97103C6.97693 1.71856 7.07735 1.47651 7.25588 1.29799C7.4344 1.11947 7.67644 1.01905 7.92891 1.01875Z" fill="#5A6168"/>
<path d="M9.32969 4.32968H6.52812C6.12298 4.33013 5.73455 4.49127 5.44807 4.77775C5.16159 5.06423 5.00045 5.45266 5 5.85781V10.6969H6.01875V15.2812H9.83906V10.6969H10.8578V5.85781C10.8574 5.45266 10.6962 5.06423 10.4097 4.77775C10.1233 4.49127 9.73483 4.33013 9.32969 4.32968ZM9.83906 9.67812H8.82031V14.2625H7.0375V9.67812H6.01875V5.85781C6.01891 5.72276 6.07263 5.59329 6.16812 5.4978C6.26361 5.40231 6.39308 5.34859 6.52812 5.34843H9.32969C9.46473 5.34859 9.5942 5.40231 9.68969 5.4978C9.78518 5.59329 9.8389 5.72276 9.83906 5.85781V9.67812Z" fill="#5A6168"/>
</svg>
