<svg width="17" height="17" viewBox="0 0 17 17" fill="none" xmlns="http://www.w3.org/2000/svg">
<path fill-rule="evenodd" clip-rule="evenodd" d="M1 5.50938C1 5.37428 1.05367 5.24472 1.14919 5.14919C1.24472 5.05367 1.37428 5 1.50937 5H14.7531C14.8882 5 15.0178 5.05367 15.1133 5.14919C15.2088 5.24472 15.2625 5.37428 15.2625 5.50938C15.2625 5.64447 15.2088 5.77403 15.1133 5.86956C15.0178 5.96508 14.8882 6.01875 14.7531 6.01875H1.50937C1.37428 6.01875 1.24472 5.96508 1.14919 5.86956C1.05367 5.77403 1 5.64447 1 5.50938Z" fill="#5A6168"/>
<path fill-rule="evenodd" clip-rule="evenodd" d="M3.5 5C3.63261 5 3.75979 5.04139 3.85355 5.11507C3.94732 5.18874 4 5.28866 4 5.39286L4 15.6071C4 15.7113 3.94732 15.8113 3.85355 15.8849C3.75978 15.9586 3.63261 16 3.5 16C3.36739 16 3.24021 15.9586 3.14645 15.8849C3.05268 15.8113 3 15.7113 3 15.6071L3 5.39286C3 5.28866 3.05268 5.18874 3.14645 5.11507C3.24021 5.04139 3.36739 5 3.5 5Z" fill="#5A6168"/>
<path fill-rule="evenodd" clip-rule="evenodd" d="M12.5 5C12.6326 5 12.7598 5.04139 12.8536 5.11507C12.9473 5.18874 13 5.28866 13 5.39286L13 15.6071C13 15.7113 12.9473 15.8113 12.8536 15.8849C12.7598 15.9586 12.6326 16 12.5 16C12.3674 16 12.2402 15.9586 12.1464 15.8849C12.0527 15.8113 12 15.7113 12 15.6071L12 5.39286C12 5.28866 12.0527 5.18874 12.1464 5.11507C12.2402 5.04139 12.3674 5 12.5 5Z" fill="#5A6168"/>
</svg>
