<svg width="19" height="19" viewBox="0 0 19 19" fill="none" xmlns="http://www.w3.org/2000/svg">
<path d="M1.58337 3.21334C1.58337 2.31684 2.31687 1.58334 3.21337 1.58334H6.47337V3.21334H3.21337V6.47334H1.58337V3.21334ZM17.8834 16.2533C17.8834 17.158 17.158 17.8833 16.2534 17.8833H12.9934V16.2533H16.2534V12.9933H17.8834V16.2533ZM3.21337 17.8833C2.31687 17.8833 1.58337 17.158 1.58337 16.2533V12.9933H3.21337V16.2533H6.47337V17.8833H3.21337ZM16.2534 1.58334C17.158 1.58334 17.8834 2.31684 17.8834 3.21334V6.47334H16.2534V3.21334H12.9934V1.58334H16.2534ZM7.28837 5.65834V7.28834H8.91837V13.8083H10.5484V7.28834H12.1784V5.65834H7.28837Z" fill="#5A6168"/>
</svg>
